<svg clip-rule="evenodd" fill-rule="evenodd" height="512" stroke-linejoin="round" stroke-miterlimit="2" viewBox="0 0 24 24" width="512" xmlns="http://www.w3.org/2000/svg"><g id="Icon"><path d="m4 6.75h16c.414 0 .75-.336.75-.75s-.336-.75-.75-.75h-16c-.414 0-.75.336-.75.75s.336.75.75.75z"/><path d="m4 12.75h16c.414 0 .75-.336.75-.75s-.336-.75-.75-.75h-16c-.414 0-.75.336-.75.75s.336.75.75.75z"/><path d="m4 18.75h16c.414 0 .75-.336.75-.75s-.336-.75-.75-.75h-16c-.414 0-.75.336-.75.75s.336.75.75.75z"/></g></svg>